<?xml version="1.0" encoding="UTF-8"?>
<svg version="1.1" xmlns="http://www.w3.org/2000/svg" width="512" height="512">
<path d="M0 0 C1.39426821 -0.00533357 2.78853067 -0.01240391 4.18278229 -0.02104706 C7.99087843 -0.03959433 11.79858357 -0.03339701 15.60669541 -0.02289402 C19.72270435 -0.01587933 23.8386348 -0.03191717 27.95462036 -0.04489136 C36.00922094 -0.06649922 44.06368005 -0.06641264 52.11830007 -0.05826581 C58.66736247 -0.05195772 65.21638373 -0.05311027 71.76544571 -0.05953789 C72.69869823 -0.06043954 73.63195076 -0.0613412 74.59348366 -0.06227018 C76.48958556 -0.06412144 78.38568744 -0.065984 80.28178932 -0.06785773 C98.05030474 -0.08442523 115.81874069 -0.07572618 133.58725132 -0.05887216 C149.8289594 -0.04417857 166.07048243 -0.05880066 182.31216668 -0.08764232 C199.00510457 -0.11706364 215.69795713 -0.12800047 232.3909198 -0.11846012 C234.28053227 -0.11743761 236.17014474 -0.116443 238.05975723 -0.11547661 C238.98938808 -0.11500022 239.91901893 -0.11452383 240.87682041 -0.114033 C247.41360905 -0.11187235 253.95031659 -0.12165442 260.48708725 -0.13624763 C268.45978052 -0.15379879 276.43223799 -0.15361387 284.40492211 -0.13089598 C288.46930743 -0.11977856 292.53327776 -0.11653401 296.59764481 -0.13519669 C300.32489997 -0.15209057 304.05138106 -0.14553177 307.77858688 -0.1209799 C309.7515843 -0.1138412 311.72462459 -0.13105321 313.6975497 -0.14939123 C325.33599036 -0.02842099 334.70971639 3.24584063 343.14407349 11.4209137 C351.83077348 20.98163484 353.50410597 32.10675574 353.43409729 44.68357849 C353.4421756 46.44801259 353.4421756 46.44801259 353.4504171 48.24809182 C353.46217103 51.48190505 353.46066224 54.71538337 353.45325029 57.94919896 C353.44849315 61.44896989 353.46105084 64.94868718 353.4712677 68.44844055 C353.48841156 75.29269819 353.4893049 82.13686385 353.4840548 88.98113738 C353.48000354 94.54761122 353.48146797 100.11405799 353.48680305 105.68053055 C353.48755148 106.4745908 353.4882999 107.26865105 353.489071 108.08677373 C353.49060257 109.70021836 353.49214092 111.31366298 353.49368597 112.92710759 C353.50739509 128.03744572 353.50198455 143.147732 353.49050076 158.25806893 C353.48057048 172.06113936 353.4935083 185.8640757 353.51743495 199.66712545 C353.54185736 213.86389619 353.55142608 228.06060455 353.54478222 242.25739586 C353.54129692 250.21829194 353.54347638 258.17908494 353.56103325 266.13996506 C353.57579463 272.9169333 353.57633955 279.69372589 353.55896234 286.47069083 C353.55048206 289.92354212 353.54822906 293.37608015 353.56361389 296.82891464 C353.57686192 300.58349598 353.56524095 304.33723576 353.54762268 308.09178162 C353.55722769 309.16700447 353.56683269 310.24222732 353.57672876 311.35003269 C353.46293875 323.20311206 350.51924429 333.95520242 342.04641724 342.5146637 C332.59058084 351.28244547 322.67214112 353.11045196 310.09283447 353.02932739 C308.69856626 353.03466097 307.30430381 353.0417313 305.91005218 353.05037445 C302.10195604 353.06892173 298.2942509 353.0627244 294.48613906 353.05222142 C290.37013012 353.04520672 286.25419968 353.06124456 282.13821411 353.07421875 C274.08361354 353.09582661 266.02915442 353.09574003 257.97453441 353.08759321 C251.425472 353.08128511 244.87645075 353.08243766 238.32738876 353.08886528 C237.39413624 353.08976694 236.46088371 353.09066859 235.49935081 353.09159757 C233.60324891 353.09344883 231.70714703 353.0953114 229.81104515 353.09718513 C212.04252974 353.11375262 194.27409379 353.10505357 176.50558315 353.08819955 C160.26387507 353.07350596 144.02235205 353.08812805 127.7806678 353.11696971 C111.08772991 353.14639103 94.39487734 353.15732786 77.70191467 353.14778751 C75.81230221 353.146765 73.92268973 353.14577039 72.03307724 353.144804 C71.10344639 353.14432761 70.17381554 353.14385122 69.21601406 353.14336039 C62.67922542 353.14119975 56.14251789 353.15098181 49.60574722 353.16557503 C41.63305395 353.18312618 33.66059648 353.18294126 25.68791236 353.16022337 C21.62352704 353.14910596 17.55955671 353.1458614 13.49518967 353.16452408 C9.76793451 353.18141797 6.04145341 353.17485916 2.31424759 353.15030729 C0.34125017 353.14316859 -1.63179011 353.1603806 -3.60471523 353.17871863 C-15.17905536 353.05841464 -24.63889864 349.80203499 -33.05123901 341.6787262 C-41.4077575 332.17254295 -43.40944685 320.74808016 -43.34126282 308.46600342 C-43.34664836 307.29056845 -43.35203389 306.11513347 -43.35758263 304.90407926 C-43.36934969 301.66800706 -43.3678214 298.43226872 -43.36041582 295.19619405 C-43.35566362 291.69572379 -43.36821211 288.19530742 -43.37843323 284.69485474 C-43.39558728 277.84711791 -43.39646822 270.99947298 -43.39122032 264.15172025 C-43.38717061 258.58236208 -43.38863168 253.01303097 -43.39396858 247.44367409 C-43.394717 246.64947835 -43.39546543 245.85528261 -43.39623653 245.03702033 C-43.39776809 243.42333417 -43.39930644 241.80964802 -43.4008515 240.19596187 C-43.41456457 225.07895167 -43.40914752 209.96199328 -43.39766628 194.84498427 C-43.38773787 181.03538375 -43.40066991 167.2259173 -43.42460047 153.41633745 C-43.44902313 139.21507833 -43.45859141 125.01388156 -43.45194775 110.81260186 C-43.44846221 102.84833745 -43.45064337 94.88417606 -43.46819878 86.9199276 C-43.48296055 80.13927537 -43.48350467 73.35879869 -43.46612787 66.57814976 C-43.45764749 63.12328022 -43.45539478 59.66872376 -43.47077942 56.213871 C-43.4840274 52.4570468 -43.47240646 48.70106365 -43.45478821 44.9442749 C-43.46439321 43.86836993 -43.47399822 42.79246496 -43.48389429 41.6839568 C-43.37015429 29.82894065 -40.42800331 19.07573476 -31.95358276 10.5146637 C-22.49774636 1.74688192 -12.57930665 -0.08112457 0 0 Z " fill="#0DB460" transform="translate(132.95358276367188,111.48533630371094)"/>
<path d="M0 0 C4.41788291 3.42101638 8.65579235 7.04202268 12.87988281 10.69775391 C16.53234837 13.83483108 20.26194716 16.87686106 23.98681641 19.92724609 C25.40376074 21.09357551 26.82043599 22.26023192 28.23681641 23.42724609 C34.06755315 28.22569287 39.90947668 33.0104904 45.76806641 37.77490234 C52.95895278 43.63299512 60.04707471 49.60578455 67.11181641 55.61474609 C71.25598065 53.91431506 74.35558078 50.97320355 77.67431641 48.05224609 C78.93258543 46.95882438 80.19170877 45.86638504 81.45166016 44.77490234 C82.07282715 44.23623535 82.69399414 43.69756836 83.33398438 43.14257812 C86.63218317 40.30817438 90.0121283 37.57589089 93.39306641 34.84130859 C95.85724539 32.82323097 98.27532352 30.75846828 100.69140625 28.68334961 C112.31562609 18.76511717 120.95261713 15.77164478 136.07373047 16.43554688 C147.79093498 17.46578503 158.07811854 27.23308635 166.98681641 34.11474609 C173.83489478 39.36931883 180.71299966 44.57354715 187.67431641 49.67724609 C195.03210812 55.07244853 202.34233731 60.52724827 209.63378906 66.01171875 C215.24605338 70.22827716 220.88844015 74.4012514 226.54931641 78.55224609 C234.15150064 84.12675877 241.66388841 89.81136139 249.11743164 95.58325195 C250.30961304 96.49989624 250.30961304 96.49989624 251.52587891 97.43505859 C252.35933838 98.09658936 253.19279785 98.75812012 254.05151367 99.43969727 C256.51791087 101.19263964 258.83876943 102.56744444 261.49829102 103.97143555 C272.8666576 110.3109225 272.8666576 110.3109225 275.0213623 116.02807617 C276.35287296 122.84810076 275.84693807 129.66139177 275.42431641 136.55224609 C275.37322549 138.60350591 275.32955279 140.6549645 275.29345703 142.70654297 C274.91117818 157.1532004 273.78377815 170.83366409 263.11181641 181.61474609 C253.65598001 190.38252787 243.73754029 192.21053436 231.15823364 192.12940979 C229.76396543 192.13474336 228.36970298 192.1418137 226.97545135 192.15045685 C223.16735521 192.16900412 219.35965007 192.1628068 215.55153823 192.15230381 C211.43552929 192.14528912 207.31959885 192.16132696 203.20361328 192.17430115 C195.14901271 192.19590901 187.09455359 192.19582243 179.03993358 192.1876756 C172.49087117 192.18136751 165.94184992 192.18252006 159.39278793 192.18894768 C158.45953541 192.18984933 157.52628288 192.19075099 156.56474998 192.19167997 C154.66864808 192.19353123 152.7725462 192.19539379 150.87644432 192.19726752 C133.10792891 192.21383502 115.33949296 192.20513597 97.57098232 192.18828195 C81.32927424 192.17358836 65.08775122 192.18821045 48.84606697 192.21705211 C32.15312908 192.24647343 15.46027651 192.25741026 -1.23268616 192.24786991 C-3.12229862 192.2468474 -5.0119111 192.24585279 -6.90152359 192.2448864 C-7.83115444 192.24441001 -8.76078529 192.24393362 -9.71858677 192.24344279 C-16.25537541 192.24128214 -22.79208294 192.25106421 -29.32885361 192.26565742 C-37.30154688 192.28320858 -45.27400435 192.28302366 -53.24668847 192.26030577 C-57.31107379 192.24918835 -61.37504412 192.2459438 -65.43941116 192.26460648 C-69.16666632 192.28150036 -72.89314742 192.27494156 -76.62035324 192.25038969 C-78.59335066 192.24325099 -80.56639094 192.260463 -82.53931606 192.27880102 C-94.11365619 192.15849704 -103.57349947 188.90211738 -111.98583984 180.77880859 C-120.15786338 171.48250256 -122.31143307 160.11092929 -122.49853516 148.08154297 C-122.52628021 146.97448502 -122.55402527 145.86742706 -122.58261108 144.7268219 C-122.66664409 141.0957999 -122.72643208 137.46510735 -122.77880859 133.83349609 C-122.79727592 132.58640366 -122.81574326 131.33931122 -122.8347702 130.0544281 C-122.90757485 124.81276402 -122.97367874 119.571148 -123.01538467 114.32913971 C-123.07548907 106.8577416 -123.19288307 99.39216562 -123.38866067 91.92305517 C-123.5383845 86.00726963 -123.59413431 80.09276164 -123.61791229 74.17506409 C-123.64169864 71.67090051 -123.69447752 69.16683209 -123.77729034 66.66392517 C-124.37298096 47.6287228 -124.37298096 47.6287228 -120.23636818 42.61114883 C-116.22508122 39.28730797 -111.81837658 37.24757929 -106.96704102 35.43510246 C-103.93481509 34.23852889 -101.3014132 32.62254433 -98.52490234 30.91943359 C-96.54236701 29.77527243 -94.55928641 28.63205559 -92.57568359 27.48974609 C-90.94977295 26.55267822 -90.94977295 26.55267822 -89.29101562 25.59667969 C-77.52976757 18.82382885 -65.7506235 12.0824495 -53.95751953 5.36523438 C-51.20513955 3.79551082 -48.45629497 2.21981252 -45.70849609 0.64208984 C-44.26855049 -0.1798026 -42.82846155 -1.00144402 -41.38818359 -1.82275391 C-40.45498291 -2.36198486 -40.45498291 -2.36198486 -39.50292969 -2.91210938 C-27.54175292 -9.69774409 -10.92499534 -8.01505347 0 0 Z " fill="#1B5E3F" transform="translate(211.88818359375,272.38525390625)"/>
<path d="M0 0 C1.56455155 -0.00577155 3.1290963 -0.01371957 4.69362706 -0.02363622 C8.96298274 -0.04439004 13.23177519 -0.03424723 17.50113213 -0.01870513 C22.11667779 -0.00734872 26.73212952 -0.02487521 31.34765625 -0.03860474 C40.37623821 -0.06079339 49.4046119 -0.05605624 58.43320189 -0.04154153 C65.77030651 -0.03023555 73.10735289 -0.02872426 80.44446373 -0.03416061 C81.48990334 -0.03492678 82.53534295 -0.03569294 83.61246255 -0.03648233 C85.73639004 -0.03808099 87.86031751 -0.03970205 89.98424497 -0.04134528 C109.88053097 -0.05558906 129.77670162 -0.03922974 149.67296871 -0.01234345 C166.74396612 0.01001047 183.81479359 0.00610005 200.88578796 -0.01693726 C220.72011223 -0.04369121 240.55433561 -0.05423315 260.38867539 -0.03887594 C262.5031272 -0.03728321 264.61757903 -0.03571136 266.73203087 -0.03416061 C267.77233971 -0.03338924 268.81264856 -0.03261786 269.88448191 -0.03182311 C277.21511985 -0.02750612 284.54569377 -0.03479229 291.87632179 -0.04655838 C300.80614208 -0.06057666 309.7357426 -0.05679684 318.66553769 -0.03015466 C323.22143581 -0.01701 327.77696741 -0.01187537 332.33286285 -0.02840042 C336.50324357 -0.0432986 340.67291794 -0.03511449 344.84323456 -0.00851266 C346.35173166 -0.00292729 347.86028842 -0.00576953 349.36874715 -0.0178916 C363.39096114 -0.12193303 363.39096114 -0.12193303 369.25370789 5.63491821 C372.34099929 9.91729016 372.83507886 13.94092017 372.67167664 19.09976196 C371.82170317 24.25520848 369.27188417 28.18432229 365.05293524 31.21675813 C361.74264105 32.89383773 359.58370019 33.01239439 355.88403893 33.01688576 C353.94382176 33.03014552 353.94382176 33.03014552 351.96440828 33.04367316 C350.53092307 33.03835259 349.09743887 33.03275717 347.66395569 33.0269165 C346.13972266 33.03163924 344.61549323 33.03767794 343.09127009 33.04492033 C338.90112279 33.06103343 334.71116077 33.05850941 330.52099371 33.05299902 C326.00289338 33.05032096 321.48484547 33.06490165 316.96676636 33.07743835 C309.13765514 33.09683752 301.30859214 33.10540109 293.47945786 33.10673904 C282.15655258 33.10877677 270.83372924 33.12822835 259.51085146 33.15213697 C241.13640856 33.19055394 222.76197119 33.2163561 204.38749695 33.23355103 C186.54471559 33.25028873 168.70194631 33.2704679 150.85917664 33.29702759 C149.21038932 33.29947772 149.21038932 33.29947772 147.52829318 33.30197735 C135.5347471 33.31993527 123.54120387 33.33928231 111.54766273 33.36028099 C110.49437295 33.36212241 109.44108316 33.36396383 108.3558755 33.36586105 C104.14593651 33.37323976 99.93599756 33.38063329 95.72605892 33.38820486 C83.38686478 33.41036168 71.04768243 33.42815618 58.70847215 33.43815766 C50.97230734 33.44452866 43.2361511 33.45406948 35.49999307 33.46612622 C31.03184594 33.47292407 26.56371265 33.47798931 22.09556007 33.47871208 C18.00985504 33.47937783 13.9241818 33.48452934 9.83848639 33.49331336 C8.35609065 33.49566902 6.87369106 33.49631063 5.39129393 33.49511655 C3.38475878 33.49372579 1.37822225 33.49898786 -0.62830544 33.50463295 C-1.74539033 33.50566477 -2.86247522 33.5066966 -4.01341116 33.50775969 C-6.84019489 33.5152234 -6.84019489 33.5152234 -9.74629211 34.63491821 C-11.03700117 37.21633632 -10.87234724 39.06073275 -10.87378407 41.9527235 C-10.87829554 43.65560175 -10.87829554 43.65560175 -10.88289815 45.39288157 C-10.88114778 46.6507302 -10.87939741 47.90857882 -10.87759399 49.20454407 C-10.87929511 50.54596687 -10.88144432 51.88738917 -10.88400525 53.22881061 C-10.88861255 56.1537149 -10.89002111 59.078598 -10.88903999 62.00350571 C-10.88745082 66.76195359 -10.89264162 71.52038037 -10.89866638 76.27882385 C-10.90678855 83.18797995 -10.9117264 90.09713235 -10.91495705 97.00629234 C-10.92044795 107.92579583 -10.93733992 118.84526798 -10.95629883 129.76475525 C-10.96265599 133.4987554 -10.96896437 137.23275564 -10.97527599 140.96675587 C-10.97765164 142.36662757 -10.97765164 142.36662757 -10.98007527 143.79477951 C-10.99802132 154.42435148 -11.01424277 165.05392568 -11.0292511 175.6835022 C-11.03062697 176.65547544 -11.03200284 177.62744868 -11.03342041 178.62887565 C-11.05534575 194.37647648 -11.06610513 210.12406927 -11.07362185 225.87168267 C-11.08169128 242.03212325 -11.10497701 258.19249484 -11.14157552 274.35289603 C-11.16361105 284.32441147 -11.17326194 294.29578509 -11.16707518 304.26732365 C-11.16390194 311.10186427 -11.17522174 317.93628376 -11.19796959 324.7707869 C-11.2106447 328.71494842 -11.21679858 332.65884011 -11.20555305 336.60301208 C-11.19538725 340.21490255 -11.20362767 343.82626914 -11.22641601 347.43809769 C-11.23377566 349.36147297 -11.22148063 351.28489257 -11.20845586 353.20823783 C-11.27149355 359.89149298 -11.63372006 364.25820545 -15.74629211 369.63491821 C-21.05091501 373.7487074 -25.03323636 375.18516868 -31.74629211 374.63491821 C-37.56277506 372.73587994 -40.82412293 370.12859629 -43.74629211 364.63491821 C-44.77969735 361.5347025 -44.87363947 359.40572904 -44.87771988 356.15559292 C-44.88156102 355.00974962 -44.88540217 353.86390632 -44.88935971 352.68334049 C-44.88849323 351.41877822 -44.88762675 350.15421595 -44.88673401 348.85133362 C-44.88931713 347.4988112 -44.89233014 346.14628954 -44.89573741 344.79376894 C-44.90381727 341.06873152 -44.90559753 337.34371335 -44.90633488 333.6186682 C-44.90818378 329.60417196 -44.91573042 325.58968576 -44.92247009 321.57519531 C-44.93606217 312.79192516 -44.94207984 304.00865958 -44.94648075 295.22538066 C-44.94924238 289.74084994 -44.95347965 284.25632099 -44.95798492 278.77179146 C-44.97018003 263.58713739 -44.98047802 248.40248475 -44.98386002 233.21782589 C-44.98407958 232.24560277 -44.98429915 231.27337965 -44.98452537 230.27169523 C-44.98474365 229.29713624 -44.98496192 228.32257724 -44.98518682 227.31848615 C-44.98563028 225.34364124 -44.98607685 223.36879633 -44.98652649 221.39395142 C-44.98674792 220.41435876 -44.98696935 219.43476611 -44.98719749 218.42548884 C-44.99114363 202.56032478 -45.00859097 186.69520671 -45.03188601 170.83006041 C-45.05560902 154.54191658 -45.06806234 138.2537958 -45.06922793 121.96563441 C-45.0701443 112.82039135 -45.07588668 103.67520817 -45.09404755 94.52998161 C-45.10946151 86.7404761 -45.11456145 78.95104895 -45.10630944 71.16153108 C-45.10240718 67.18866456 -45.10331167 63.21595578 -45.11736679 59.24310875 C-45.13013155 55.60159765 -45.12888581 51.96036239 -45.11677608 48.31885154 C-45.11390287 46.38678989 -45.12573551 44.45472336 -45.13819814 42.52269977 C-45.06898077 30.29543518 -42.1427766 19.99015988 -34.00019836 10.62710571 C-24.31322613 1.32277895 -12.84249336 -0.10403918 0 0 Z " fill="#0CB560" transform="translate(70.74629211425781,47.365081787109375)"/>
<path d="M0 0 C0.82757813 0.42539063 1.65515625 0.85078125 2.5078125 1.2890625 C13.43508873 7.38876595 19.46861715 15.26193663 24.14453125 26.83203125 C27.30162041 38.52335228 25.29119649 51.20299842 19.52734375 61.67578125 C12.50840901 72.61071741 3.04222639 78.63244979 -9.46875 81.58203125 C-21.32516906 83.53980415 -31.59597536 81.15511209 -41.62109375 74.70703125 C-50.62784682 68.24405737 -56.77123866 59.30246185 -59.66796875 48.51171875 C-61.40874104 35.34328837 -59.70988204 24.10926612 -51.75 13.125 C-39.39805912 -1.37856929 -17.97636887 -9.30294576 0 0 Z " fill="#FDCA27" transform="translate(380,174)"/>
</svg>
